<svg xmlns="http://www.w3.org/2000/svg" viewBox="0 0 1179.99 1234.8"><defs><style>.cls-1{fill:#a9b9ff;}.cls-2{fill:#4d468d;}.cls-3{fill:#e461c8;}.cls-4{fill:#fff;}</style></defs><g id="Layer_2" data-name="Layer 2"><g id="Layer_7" data-name="Layer 7"><path class="cls-1" d="M259.88,100.42c26.16-29.9,59.8-38.12,99.41-26.91,39.61,12,71,47.84,93.43,108.38,5.23,16.45,14.95,50.83,29.9,102.4q32.5,113.23,78.48,266.84c31.39,101.65,61.29,192.09,90.44,270.57s51.57,118.85,67.27,122.58c16.44-4.48,38.12-47.83,65.77-128.56s56.06-173.4,84.47-277.3,52.32-192.84,71.75-266.84c11.21-43.35,19.43-73.24,23.92-89.69,14.2-45.59,35.13-77,62-93.43,27.65-17.19,54.56-20.93,81.47-12.71s47.83,26.91,61.29,56.81,14.2,68.76.74,116.6q-51.57,172.66-140.51,441.74c-59,179.39-112.87,330.37-161.45,451.45-19.44,42.61-50.83,70.26-94.93,83-43.35,13.45-87.45,12.71-131.55-3-44.1-16.44-76.24-46.34-96.42-91.93Q468,940.92,383.21,682.68q-85.21-257.86-139-441Q219.52,145.27,259.88,100.42Z"/></g><g id="Layer_6" data-name="Layer 6"><path class="cls-2" d="M173.86,75.78C200.59,45.23,235,36.83,275.43,48.29,315.9,60.5,348,97.16,370.89,159c5.34,16.8,15.27,51.93,30.54,104.62q33.22,115.7,80.19,272.64C513.69,640.14,544.24,732.54,574,812.73S626.72,934.15,642.76,938c16.8-4.58,38.94-48.87,67.2-131.35s57.28-177.17,86.3-283.33,53.45-197,73.31-272.63C881,206.37,889.42,175.82,894,159c14.51-46.58,35.89-78.66,63.38-95.46,28.26-17.56,55.75-21.38,83.24-13s48.88,27.49,62.62,58,14.51,70.26.77,119.13q-52.69,176.42-143.57,451.33c-60.33,183.29-115.32,337.55-165,461.27-19.85,43.53-51.93,71.78-97,84.76-44.29,13.75-89.35,13-134.4-3-45.06-16.8-77.9-47.35-98.52-93.93q-79-193.59-165.72-457.45-87-263.46-142-450.57Q132.62,121.6,173.86,75.78Z"/></g><g id="Layer_5" data-name="Layer 5"><path class="cls-3" d="M115.68,59.11c27.12-31,62-39.5,103-27.88,41.06,12.39,73.6,49.57,96.83,112.32,5.43,17,15.5,52.68,31,106.13Q380.24,367,427.87,526.23c32.54,105.36,63.52,199.09,93.73,280.43s53.46,123.17,69.72,127c17-4.64,39.51-49.57,68.17-133.24s58.1-179.72,87.54-287.4S801.26,313.2,821.4,236.51c11.62-44.93,20.14-75.92,24.79-93,14.71-47.25,36.4-79.79,64.29-96.83C939.15,28.9,967,25,994.92,33.55s49.58,27.89,63.52,58.87,14.72,71.27.78,120.85q-53.46,179-145.64,457.82c-61.2,185.92-117,342.4-167.32,467.9-20.15,44.15-52.68,72.82-98.39,86-44.93,13.94-90.63,13.16-136.34-3.1-45.7-17.05-79-48-99.93-95.29q-80.18-196.36-168.1-464Q155.2,395.31,99.41,205.52,73.85,105.59,115.68,59.11Z"/></g><g id="Layer_4" data-name="Layer 4"><path class="cls-4" d="M26.53,33.57C54.23,1.92,89.85-6.79,131.8,5.08,173.74,17.75,207,55.74,230.73,119.85c5.54,17.41,15.83,53.82,31.66,108.43q34.42,119.91,83.11,282.56c33.24,107.64,64.9,203.41,95.77,286.52s54.61,125.85,71.23,129.8c17.41-4.75,40.37-50.65,69.65-136.13s59.36-183.63,89.44-293.64,55.4-204.21,76-282.56c11.87-45.91,20.58-77.57,25.33-95,15-48.28,37.2-81.53,65.69-98.94,29.29-18.2,57.78-22.16,86.28-13.45S975.52,36,989.77,67.61s15,72.82.79,123.47q-54.62,182.84-148.8,467.77c-62.53,190-119.52,349.84-171,478.06-20.58,45.11-53.82,74.4-100.52,87.85-45.91,14.25-92.6,13.46-139.3-3.16-46.7-17.42-80.73-49.08-102.1-97.36Q247,923.6,157.12,650.14,66.9,377.08,9.91,183.17-16.22,81.07,26.53,33.57Z"/></g></g></svg>