<svg xmlns="http://www.w3.org/2000/svg" viewBox="0 0 2964.31 507.5"><defs><style>.cls-1{fill:#a9b9ff;}.cls-2{fill:#4d468d;}.cls-3{fill:#e461c8;}.cls-4{fill:#fff;}</style></defs><g id="Layer_2" data-name="Layer 2"><g id="Layer_2-2" data-name="Layer 2"><path class="cls-1" d="M2623.49,259.87a121.59,121.59,0,0,1,40.93-47.61c17.26-12,38.7-18.38,63.76-18.66,22,.28,40.09,5.29,54.57,14.48A93.18,93.18,0,0,1,2815.88,244a136.33,136.33,0,0,1,14.2,47.61c5.29,50.95-3.34,90.76-25.33,119.16-22,28.68-52.62,42.88-91.6,42.32-22.56-1.11-41.77-8.07-57.92-21.44a127.12,127.12,0,0,1-36.75-48.72,134.09,134.09,0,0,1-11.13-59A163.47,163.47,0,0,1,2623.49,259.87Zm63.76,31.18c-8.63,13.92-11.69,30.9-8.63,50.95,2.23,12.53,8.35,23.67,18.1,33.69,10,10,21.72,13.92,35.64,11.42,14.75-3.9,25.06-12,31.46-24.23a77.82,77.82,0,0,0,8.91-39.53q-1.26-29.66-15.87-45.94c-9.75-10.86-22.55-14.76-38.7-11.42C2706.19,268.78,2695.61,277.13,2687.25,291.05Z"/><path class="cls-2" d="M2646.34,255.52a124.11,124.11,0,0,1,41.81-48.64c17.64-12.24,39.55-18.78,65.15-19.06,22.47.28,41,5.4,55.75,14.79a95.27,95.27,0,0,1,33.86,36.7,139.24,139.24,0,0,1,14.5,48.64c5.41,52.06-3.41,92.74-25.88,121.75-22.48,29.3-53.77,43.81-93.59,43.24-23.05-1.14-42.67-8.25-59.17-21.9a129.88,129.88,0,0,1-37.55-49.78A136.87,136.87,0,0,1,2629.84,321,166.91,166.91,0,0,1,2646.34,255.52Zm65.14,31.86c-8.82,14.22-11.95,31.58-8.82,52.06,2.28,12.8,8.54,24.18,18.49,34.42,10.24,10.24,22.19,14.22,36.41,11.66,15.08-4,25.61-12.23,32.15-24.75a79.51,79.51,0,0,0,9.1-40.39q-1.28-30.3-16.21-46.94c-10-11.09-23-15.08-39.54-11.66C2730.82,264.62,2720,273.16,2711.48,287.38Z"/><path class="cls-3" d="M2661.78,252.58a125.91,125.91,0,0,1,42.42-49.34c17.89-12.41,40.11-19.05,66.08-19.34,22.8.29,41.56,5.49,56.56,15a96.61,96.61,0,0,1,34.34,37.22,141.4,141.4,0,0,1,14.72,49.35c5.48,52.8-3.47,94.07-26.26,123.5-22.8,29.72-54.54,44.44-94.94,43.86-23.37-1.15-43.28-8.37-60-22.22a131.66,131.66,0,0,1-38.09-50.5A138.84,138.84,0,0,1,2645.05,319,169.37,169.37,0,0,1,2661.78,252.58Zm66.09,32.32c-8.95,14.43-12.12,32-8.95,52.81,2.31,13,8.66,24.52,18.76,34.91,10.38,10.39,22.5,14.43,36.93,11.83,15.3-4,26-12.41,32.61-25.1a80.62,80.62,0,0,0,9.23-41q-1.29-30.74-16.44-47.61c-10.1-11.25-23.38-15.29-40.11-11.83C2747.49,261.81,2736.52,270.47,2727.87,284.9Z"/><path class="cls-4" d="M2685.46,248.08q15.48-31.41,43.34-50.42c18.28-12.68,41-19.46,67.52-19.75,23.29.29,42.45,5.6,57.78,15.33a98.77,98.77,0,0,1,35.09,38,144.53,144.53,0,0,1,15,50.42c5.6,53.95-3.54,96.11-26.83,126.18-23.29,30.37-55.72,45.41-97,44.82-23.88-1.18-44.22-8.55-61.32-22.7a134.72,134.72,0,0,1-38.92-51.6,142,142,0,0,1-11.79-62.5A173,173,0,0,1,2685.46,248.08Zm67.52,33c-9.14,14.74-12.39,32.72-9.14,53.95,2.35,13.27,8.84,25.06,19.16,35.67,10.61,10.62,23,14.75,37.74,12.09,15.62-4.13,26.53-12.68,33.31-25.65a82.41,82.41,0,0,0,9.44-41.86q-1.34-31.41-16.81-48.65c-10.32-11.5-23.88-15.63-41-12.09C2773,257.51,2761.82,266.35,2753,281.1Z"/><path class="cls-1" d="M2570.87,135.37a47.76,47.76,0,0,1-12.53,26.71c-7,7.51-17,10.85-29.79,10.29-15-2.22-24.78-9.45-29.23-21.42-4.74-12-4.46-24.2,0-36.17,4.45-12.24,13.08-19.47,25.33-22a51.48,51.48,0,0,1,23.11,3.06c7.8,3.06,13.92,7.51,18.1,13.35C2570.31,116.45,2572,125.08,2570.87,135.37Zm-53.73,66.5c10.85-5,21.43-5.29,32-1.12s16.43,12.8,17.82,26.15c2.23,66.78,2,134.94-.55,203.94-1.12,8.9-7,15-17.27,19.19a48.66,48.66,0,0,1-31.46,1.11c-10.3-3.33-16.42-11.12-17.54-23.64-1.67-34.78-2.5-71.5-3.06-110.18-.56-38.39-.28-67.6,1.11-87.63C2500.15,216.05,2506.56,206.59,2517.14,201.87Z"/><path class="cls-2" d="M2592.57,128.32a48.83,48.83,0,0,1-12.8,27.29c-7.11,7.67-17.35,11.09-30.44,10.52-15.36-2.28-25.32-9.67-29.87-21.89-4.83-12.22-4.55-24.73,0-36.95,4.55-12.51,13.37-19.9,25.89-22.46A52.72,52.72,0,0,1,2569,88c8,3.12,14.22,7.67,18.49,13.64C2592,109,2593.71,117.8,2592.57,128.32Zm-54.9,67.94c11.09-5.12,21.9-5.4,32.71-1.14s16.79,13.08,18.21,26.72c2.27,68.22,2,137.87-.57,208.36-1.14,9.1-7.11,15.35-17.64,19.62a49.78,49.78,0,0,1-32.14,1.13c-10.53-3.41-16.79-11.37-17.92-24.16-1.71-35.53-2.56-73.05-3.13-112.56-.57-39.23-.29-69.08,1.13-89.55C2520.32,210.76,2526.86,201.09,2537.67,196.26Z"/><path class="cls-3" d="M2607.25,123.55a49.52,49.52,0,0,1-13,27.68c-7.21,7.79-17.6,11.25-30.87,10.67-15.59-2.3-25.69-9.8-30.3-22.2-4.91-12.4-4.62-25.09,0-37.48,4.61-12.69,13.56-20.19,26.26-22.78a53.39,53.39,0,0,1,24,3.17c8.08,3.17,14.42,7.78,18.75,13.84C2606.67,104,2608.4,112.88,2607.25,123.55Zm-55.7,68.92c11.26-5.19,22.22-5.48,33.19-1.16s17,13.27,18.47,27.11c2.31,69.2,2,139.85-.58,211.35-1.15,9.23-7.21,15.58-17.89,19.9a50.47,50.47,0,0,1-32.61,1.15c-10.68-3.46-17-11.53-18.18-24.51-1.73-36-2.6-74.1-3.17-114.18-.58-39.79-.29-70.07,1.15-90.83C2534,207.17,2540.59,197.37,2551.55,192.47Z"/><path class="cls-4" d="M2629.74,116.25a50.66,50.66,0,0,1-13.27,28.28c-7.37,7.95-18,11.49-31.55,10.9-15.92-2.36-26.24-10-31-22.69-5-12.67-4.72-25.63,0-38.3,4.71-13,13.85-20.62,26.82-23.27a54.75,54.75,0,0,1,24.48,3.24c8.25,3.24,14.74,8,19.16,14.14C2629.15,96.21,2630.92,105.34,2629.74,116.25Zm-56.91,70.41c11.5-5.31,22.71-5.6,33.91-1.18s17.39,13.55,18.87,27.69c2.36,70.71,2.06,142.89-.59,216-1.18,9.43-7.37,15.91-18.28,20.33a51.68,51.68,0,0,1-33.32,1.18c-10.9-3.54-17.39-11.79-18.57-25.05-1.77-36.82-2.65-75.71-3.24-116.66-.59-40.66-.3-71.59,1.18-92.8C2554.85,201.68,2561.63,191.66,2572.83,186.66Z"/><path class="cls-1" d="M96.81,37.41c9.74-11.14,22.27-14.2,37-10,14.75,4.46,26.45,17.82,34.8,40.37,2,6.13,5.57,18.94,11.14,38.15q12.1,42.18,29.23,99.4c11.69,37.86,22.83,71.55,33.69,100.78s19.21,44.27,25.06,45.67c6.12-1.67,14.2-17.82,24.5-47.89s20.88-64.6,31.46-103.3,19.49-71.83,26.73-99.39c4.18-16.15,7.24-27.29,8.91-33.42,5.29-17,13.08-28.67,23.11-34.8,10.3-6.4,20.32-7.79,30.35-4.73s17.81,10,22.83,21.16,5.29,25.61.27,43.43q-19.2,64.32-52.34,164.55c-22,66.82-42,123.06-60.14,168.17-7.24,15.87-18.93,26.17-35.36,30.9a75.83,75.83,0,0,1-49-1.11c-16.43-6.13-28.4-17.26-35.92-34.25Q174.34,350.5,142.75,254.3T91,90Q81.77,54.11,96.81,37.41Z"/><path class="cls-2" d="M64.76,28.23C74.72,16.85,87.52,13.72,102.6,18c15.07,4.55,27,18.2,35.56,41.24,2,6.26,5.69,19.35,11.37,39q12.38,43.1,29.87,101.55c11.95,38.69,23.33,73.11,34.42,103S233.45,348,239.43,349.4c6.26-1.71,14.51-18.21,25-48.93s21.34-66,32.15-105.54,19.91-73.4,27.31-101.56c4.26-16.5,7.39-27.88,9.1-34.14,5.4-17.35,13.37-29.3,23.61-35.55,10.52-6.55,20.77-8,31-4.84S405.84,29.08,411,40.46s5.41,26.17.29,44.38Q391.62,150.56,357.77,253c-22.48,68.27-43,125.74-61.45,171.82C288.93,441,277,451.52,260.19,456.36a77.5,77.5,0,0,1-50.06-1.14c-16.79-6.26-29-17.64-36.7-35Q144,348.11,111.7,249.83T58.79,82Q49.4,45.3,64.76,28.23Z"/><path class="cls-3" d="M43.09,22C53.19,10.48,66.18,7.3,81.47,11.63c15.29,4.62,27.41,18.47,36.07,41.84,2,6.35,5.77,19.63,11.54,39.54q12.55,43.71,30.3,103C171.5,235.27,183,270.18,194.3,300.48s19.91,45.88,26,47.33c6.35-1.74,14.72-18.47,25.39-49.64s21.64-66.94,32.61-107,20.2-74.45,27.7-103c4.33-16.74,7.5-28.28,9.24-34.63,5.48-17.6,13.56-29.72,24-36.07,10.67-6.63,21.06-8.08,31.45-4.9s18.47,10.39,23.66,21.93,5.48,26.55.29,45Q374.66,146.1,340.31,250c-22.8,69.26-43.57,127.55-62.33,174.29-7.5,16.45-19.62,27.13-36.65,32a78.54,78.54,0,0,1-50.78-1.15c-17-6.35-29.44-17.89-37.23-35.49Q123.46,346.51,90.7,246.81T37,76.56Q27.51,39.33,43.09,22Z"/><path class="cls-4" d="M9.88,12.51C20.2.71,33.47-2.53,49.09,1.89,64.72,6.61,77.1,20.76,86,44.64,88,51.13,91.84,64.69,97.74,85q12.83,44.67,31,105.26c12.38,40.1,24.17,75.77,35.67,106.73s20.35,46.88,26.54,48.35c6.48-1.77,15-18.87,25.94-50.71s22.11-68.4,33.32-109.38S270.81,109.21,278.47,80c4.42-17.1,7.67-28.89,9.44-35.38,5.6-18,13.85-30.36,24.47-36.85,10.91-6.78,21.52-8.26,32.13-5s18.87,10.61,24.18,22.4,5.6,27.13.29,46q-20.34,68.1-55.42,174.24C290.26,316.18,269,375.74,249.87,423.5c-7.66,16.8-20.05,27.71-37.44,32.73a80.37,80.37,0,0,1-51.89-1.18c-17.4-6.49-30.07-18.28-38-36.27Q92,344,58.53,242.18,24.91,140.47,3.69,68.23-6,30.19,9.88,12.51Z"/><path class="cls-1" d="M544,135.13a47.85,47.85,0,0,1-12.53,26.73c-7,7.52-17,10.86-29.79,10.3-15-2.22-24.78-9.46-29.23-21.44-4.74-12-4.46-24.22,0-36.19,4.45-12.25,13.08-19.49,25.33-22a51.63,51.63,0,0,1,23.11,3.07c7.8,3.06,13.92,7.51,18.1,13.36C543.4,116.2,545.07,124.83,544,135.13Zm-53.73,66.55c10.86-5,21.44-5.29,32-1.12s16.42,12.81,17.81,26.17c2.23,66.83,2,135-.55,204.09-1.12,8.91-7,15-17.26,19.21a48.69,48.69,0,0,1-31.47,1.11c-10.3-3.34-16.42-11.13-17.54-23.66-1.67-34.81-2.5-71.56-3.06-110.26-.56-38.42-.28-67.66,1.11-87.7C473.23,215.88,479.64,206.41,490.22,201.68Z"/><path class="cls-2" d="M521.62,128.08a48.89,48.89,0,0,1-12.8,27.31c-7.11,7.68-17.35,11.09-30.44,10.52-15.36-2.27-25.31-9.67-29.87-21.9-4.83-12.23-4.55-24.75,0-37,4.56-12.52,13.37-19.92,25.89-22.48A52.86,52.86,0,0,1,498,87.68c8,3.13,14.23,7.68,18.49,13.66C521.05,108.73,522.76,117.55,521.62,128.08Zm-54.9,68c11.09-5.13,21.9-5.41,32.71-1.14s16.79,13.08,18.21,26.74c2.28,68.27,2,138-.57,208.52-1.14,9.1-7.11,15.36-17.64,19.62A49.72,49.72,0,0,1,467.29,451c-10.53-3.41-16.79-11.38-17.92-24.18-1.71-35.56-2.56-73.11-3.13-112.65-.57-39.26-.29-69.13,1.14-89.61C449.37,210.57,455.91,200.9,466.72,196.07Z"/><path class="cls-3" d="M506.52,123.3a49.59,49.59,0,0,1-13,27.71c-7.22,7.79-17.61,11.25-30.88,10.67-15.58-2.3-25.68-9.81-30.3-22.22-4.9-12.4-4.62-25.1,0-37.51,4.62-12.7,13.56-20.2,26.26-22.79a53.39,53.39,0,0,1,23.95,3.17c8.08,3.17,14.43,7.79,18.76,13.85C505.94,103.68,507.68,112.63,506.52,123.3Zm-55.69,69c11.25-5.19,22.22-5.48,33.18-1.15s17,13.27,18.47,27.12c2.31,69.26,2,140-.58,211.52-1.15,9.23-7.21,15.58-17.89,19.91a50.44,50.44,0,0,1-32.6,1.15c-10.68-3.46-17-11.54-18.18-24.53-1.73-36.07-2.6-74.16-3.18-114.27-.57-39.82-.29-70.12,1.16-90.89C433.23,207,439.86,197.18,450.83,192.27Z"/><path class="cls-4" d="M483.38,116a50.72,50.72,0,0,1-13.27,28.31c-7.37,8-18,11.49-31.55,10.9-15.92-2.35-26.24-10-30.95-22.7-5-12.68-4.72-25.65,0-38.33,4.71-13,13.85-20.63,26.83-23.29a54.73,54.73,0,0,1,24.47,3.25c8.25,3.24,14.74,8,19.16,14.15C482.79,95.94,484.56,105.08,483.38,116Zm-56.9,70.47c11.49-5.31,22.7-5.61,33.9-1.18s17.4,13.56,18.87,27.71c2.36,70.76,2.06,143-.59,216.11-1.18,9.44-7.37,15.92-18.28,20.34a51.52,51.52,0,0,1-33.31,1.18c-10.91-3.53-17.4-11.79-18.58-25.06-1.77-36.85-2.65-75.77-3.24-116.75-.59-40.69-.3-71.64,1.18-92.87C408.49,201.49,415.27,191.47,426.48,186.46Z"/><path class="cls-1" d="M588.5,235.55c-.83-56.52-.56-105.8.56-148.12.55-12,5-20.89,12.8-26.73a41.71,41.71,0,0,1,27-7.8,40.39,40.39,0,0,1,25.9,10.86c7.23,6.4,10.3,16.15,9.74,28.68-3.06,37.58-3.34,64.87-1.39,81.57,2,17,6.12,27.29,12.81,31.75,6.4,4.45,15,7,25.33,7.51,9.19.56,19.49,2.79,31.19,6.41s24.5,11.69,38.42,23.66c16.42,15.59,27.56,35.92,33.13,61.26,5.57,25,5,50.39-1.39,76.28-6.68,25.62-19.49,47.06-39,64.32Q734,471.51,683.44,471.09c-27.84.28-49.84-5.29-65.71-16.15-16.14-10.85-24.5-32-25.89-63.76C590.45,344.13,589.34,292.07,588.5,235.55Zm84.08,50.67a45.1,45.1,0,0,0-12.8,25.34,114.94,114.94,0,0,0-1.4,28.95c0,4.73.28,9.75,0,15a222,222,0,0,0,1.12,27.28c1.11,8.91,3.9,16.43,8.63,22,4.73,5.84,12.53,8.63,23.39,8.63,16.42-1.12,29-8.08,37-20.6,8.35-12.53,12.53-27.29,13.08-44,.56-16.42-2.22-31.46-8.63-44.82s-15.87-21.44-28.68-24.22C689.85,277.59,679.27,279.82,672.58,286.22Z"/><path class="cls-2" d="M567.14,230.28c-.86-57.75-.57-108.1.57-151.34.57-12.23,5.12-21.33,13.08-27.31a42.64,42.64,0,0,1,27.6-8,41.17,41.17,0,0,1,26.45,11.09c7.4,6.54,10.53,16.5,10,29.3-3.13,38.41-3.42,66.28-1.42,83.35,2,17.35,6.25,27.88,13.08,32.43,6.54,4.55,15.36,7.11,25.89,7.68,9.39.57,19.91,2.85,31.86,6.55s25,11.94,39.26,24.18c16.78,15.93,28.16,36.69,33.85,62.58,5.69,25.6,5.12,51.49-1.42,77.94C779.07,405,766,426.85,746.07,444.49q-30.3,26.88-81.93,26.45c-28.44.29-50.92-5.4-67.13-16.5-16.5-11.09-25-32.71-26.46-65.14C569.13,341.22,568,288,567.14,230.28Zm85.91,51.77A46.14,46.14,0,0,0,640,307.94a117.72,117.72,0,0,0-1.42,29.59c0,4.83.28,10,0,15.36a225.87,225.87,0,0,0,1.14,27.88c1.14,9.1,4,16.78,8.82,22.47,4.83,6,12.8,8.82,23.89,8.82,16.79-1.14,29.59-8.25,37.84-21.05,8.53-12.8,12.8-27.88,13.37-44.95.57-16.78-2.28-32.15-8.82-45.8s-16.22-21.9-29.3-24.75C670.69,273.24,659.88,275.51,653.05,282.05Z"/><path class="cls-3" d="M552.69,226.72c-.86-58.58-.58-109.65.58-153.52.58-12.4,5.19-21.64,13.27-27.7a43.28,43.28,0,0,1,28-8.08,41.8,41.8,0,0,1,26.84,11.26c7.5,6.63,10.68,16.73,10.1,29.72C628.29,117.35,628,145.63,630,163c2,17.6,6.34,28.28,13.27,32.89,6.64,4.62,15.58,7.22,26.26,7.79,9.52.58,20.2,2.89,32.32,6.64s25.39,12.12,39.82,24.53C758.72,251,770.27,272,776,298.28c5.77,26,5.19,52.23-1.45,79.07C767.67,403.9,754.4,426.11,734.2,444q-30.74,27.25-83.11,26.83c-28.86.29-51.65-5.48-68.1-16.73-16.74-11.26-25.39-33.19-26.84-66.09C554.71,339.26,553.56,285.3,552.69,226.72Zm87.15,52.52a46.71,46.71,0,0,0-13.28,26.26,118.71,118.71,0,0,0-1.44,30c0,4.9.29,10.1,0,15.58a230.32,230.32,0,0,0,1.15,28.28c1.16,9.23,4,17,9,22.79,4.91,6.06,13,8.95,24.24,8.95,17-1.15,30-8.37,38.38-21.35,8.65-13,13-28.28,13.56-45.6.58-17-2.31-32.6-8.95-46.45S686,275.49,672.73,272.6C657.73,270.29,646.76,272.6,639.84,279.24Z"/><path class="cls-4" d="M530.55,221.26c-.88-59.85-.59-112,.59-156.85.59-12.68,5.31-22.11,13.56-28.3a44.18,44.18,0,0,1,28.6-8.26,42.77,42.77,0,0,1,27.42,11.5c7.67,6.78,10.91,17.1,10.32,30.37-3.24,39.8-3.54,68.69-1.48,86.38,2.07,18,6.49,28.9,13.57,33.61,6.78,4.72,15.92,7.38,26.83,8,9.73.59,20.63,3,33,6.79s25.94,12.38,40.68,25.06c17.4,16.51,29.19,38,35.09,64.86,5.9,26.53,5.31,53.36-1.48,80.78C750.2,402.29,736.64,425,716,443.27q-31.39,27.86-84.91,27.42c-29.49.29-52.78-5.6-69.58-17.1-17.1-11.5-26-33.91-27.42-67.52C532.61,336.24,531.44,281.11,530.55,221.26Zm89,53.66A47.77,47.77,0,0,0,606,301.75a121.63,121.63,0,0,0-1.48,30.66c0,5,.3,10.32,0,15.92a236.37,236.37,0,0,0,1.18,28.9c1.18,9.43,4.13,17.39,9.14,23.29,5,6.19,13.27,9.14,24.77,9.14,17.39-1.18,30.66-8.55,39.21-21.82,8.84-13.27,13.27-28.89,13.86-46.58.59-17.4-2.36-33.32-9.14-47.47s-16.81-22.7-30.37-25.65C637.87,265.78,626.67,268.14,619.59,274.92Z"/><path class="cls-1" d="M1013.65,202.79c15.59,5.57,28.4,13.92,38.15,25.61q14.61,17.13,13.36,43.44c-1.39,14.2-8.35,27-20.32,38.42s-25.9,21.16-41.49,29.79c-15.59,8.36-29.51,15-41.48,20.33-7.24,3.06-12.53,5.57-16.43,7.51q-8.78,5.85-4.18,15.87c3.06,6.41,10,11.14,20.61,13.65,10.85,2.5,25-.28,42.59-8.63A90.35,90.35,0,0,1,1033.7,379c10.58-1.67,18.93,2.51,25.34,12.81,8.07,17.26-1.68,32.3-29,45.1-31.46,13.92-60.14,18.94-85.48,15-25.33-3.62-46.21-14.2-62.64-32s-27-40.93-32-69.33a149,149,0,0,1,5.29-70.16,124.87,124.87,0,0,1,38.42-57.08c18.1-15.31,41.49-24.22,69.89-26.73A125.58,125.58,0,0,1,1013.65,202.79ZM934.86,314.72c10.86,0,23.94-4.18,39.26-12.25,12.25-6.69,20.6-13.65,25.89-21.44,5-7.8,3.62-14.48-3.9-19.77-5.29-3.34-12.53-5-22.27-5-9.75-.28-19.49,2.5-29,8.35-9.74,5.57-16.7,15.59-21.16,29.79C920.38,308,924,315,934.86,314.72Z"/><path class="cls-2" d="M1001.53,197.2c15.93,5.69,29,14.23,39,26.17q14.93,17.5,13.65,44.38c-1.42,14.51-8.53,27.6-20.76,39.26s-26.46,21.62-42.39,30.44c-15.93,8.53-30.15,15.36-42.39,20.76-7.39,3.13-12.8,5.69-16.78,7.68q-9,6-4.27,16.22c3.13,6.54,10.24,11.38,21.05,13.94,11.1,2.56,25.61-.29,43.53-8.82a92.38,92.38,0,0,1,29.87-10c10.81-1.7,19.34,2.56,25.88,13.09,8.25,17.64-1.7,33-29.58,46.08-32.15,14.23-61.45,19.35-87.33,15.36-25.89-3.69-47.23-14.5-64-32.71s-27.59-41.82-32.71-70.83a152.14,152.14,0,0,1,5.4-71.69,127.49,127.49,0,0,1,39.26-58.32c18.49-15.64,42.38-24.74,71.4-27.31A128.47,128.47,0,0,1,1001.53,197.2ZM921,311.56c11.09,0,24.46-4.27,40.11-12.52,12.52-6.82,21-13.94,26.46-21.9,5.12-8,3.69-14.79-4-20.2-5.4-3.41-12.8-5.12-22.75-5.12-10-.28-19.92,2.56-29.59,8.54-10,5.69-17.07,15.93-21.62,30.43C906.23,304.73,909.93,311.85,921,311.56Z"/><path class="cls-3" d="M993.32,193.43c16.16,5.77,29.44,14.42,39.54,26.54q15.15,17.75,13.85,45c-1.45,14.72-8.66,28-21.07,39.82s-26.83,21.93-43,30.88c-16.16,8.65-30.59,15.58-43,21.06-7.5,3.18-13,5.77-17,7.79q-9.09,6.06-4.33,16.45c3.17,6.64,10.39,11.54,21.35,14.14,11.26,2.6,26-.29,44.15-8.95a94.22,94.22,0,0,1,30.3-10.1c11-1.73,19.62,2.6,26.26,13.28,8.37,17.89-1.73,33.47-30,46.75-32.61,14.42-62.33,19.62-88.59,15.58-26.26-3.75-47.9-14.72-64.93-33.19s-28-42.42-33.18-71.85a154.51,154.51,0,0,1,5.48-72.72A129.37,129.37,0,0,1,869,214.78c18.76-15.87,43-25.11,72.43-27.7A129.86,129.86,0,0,1,993.32,193.43Zm-81.66,116c11.25,0,24.82-4.33,40.69-12.7,12.69-6.93,21.35-14.14,26.83-22.22,5.2-8.08,3.76-15-4-20.49-5.48-3.46-13-5.19-23.08-5.19-10.1-.29-20.2,2.6-30,8.66-10.1,5.77-17.31,16.16-21.93,30.87C896.66,302.5,900.41,309.72,911.66,309.43Z"/><path class="cls-4" d="M980.76,187.64c16.51,5.89,30.07,14.74,40.39,27.12q15.48,18.13,14.15,46c-1.48,15-8.85,28.6-21.52,40.69S986.36,323.85,969.85,333c-16.51,8.84-31.26,15.92-43.93,21.52-7.67,3.24-13.27,5.9-17.4,8q-9.28,6.19-4.42,16.8c3.24,6.79,10.61,11.8,21.82,14.45,11.5,2.65,26.53-.29,45.11-9.14a95.82,95.82,0,0,1,31-10.32c11.21-1.77,20,2.66,26.83,13.56,8.55,18.28-1.77,34.2-30.66,47.77-33.32,14.74-63.68,20.05-90.51,15.92-26.83-3.84-48.94-15-66.34-33.91s-28.6-43.34-33.9-73.41a157.74,157.74,0,0,1,5.6-74.3,132.2,132.2,0,0,1,40.68-60.44c19.17-16.21,43.93-25.65,74-28.3A132.75,132.75,0,0,1,980.76,187.64ZM897.32,306.16c11.5,0,25.35-4.43,41.57-13,13-7.07,21.82-14.44,27.42-22.7,5.31-8.25,3.83-15.33-4.13-20.93-5.6-3.54-13.27-5.31-23.59-5.31-10.31-.29-20.63,2.66-30.66,8.85-10.32,5.89-17.69,16.51-22.4,31.54C882,299.08,885.82,306.45,897.32,306.16Z"/><path class="cls-1" d="M1280.66,220.05c15,14.2,25.34,32.3,30.63,54.57s7.51,46.22,7,72.11-2,51.51-4.18,76.57c-.28,2.23-.28,4.46-.56,7q-2.51,16.29-18.37,20.88a43.1,43.1,0,0,1-31.19-1.95c-10.3-4.45-15.59-12.8-15.87-24.78q.42-11.69.84-24.22,1.66-25.47,1.67-51.78a239.69,239.69,0,0,0-5.57-49.84c-3.06-11.42-9.74-19.49-20-24.5s-20.61-5.57-31.19-1.4c-10.86,4.18-18.1,14.48-22.27,30.63a212.82,212.82,0,0,0-3.62,41.49c0,15.31.56,29.51,1.11,43.43q2.09,30.07,0,42.6c-3.34,10.86-9.74,17.82-19.49,20.32-9.74,2.79-19.21,1.67-28.4-2.78-9.46-4.73-15-12.53-17.26-23.39q-16.29-109,9.19-169.56c16.7-40.37,50.39-59.86,101.07-58.75C1243.35,198.34,1265.35,206.13,1280.66,220.05Z"/><path class="cls-2" d="M1274.33,214.84c15.36,14.51,25.89,33,31.29,55.76s7.69,47.22,7.12,73.67-2,52.63-4.27,78.23c-.29,2.28-.29,4.56-.57,7.12q-2.57,16.63-18.77,21.33a44,44,0,0,1-31.87-2c-10.52-4.55-15.93-13.09-16.21-25.32q.42-11.94.85-24.75,1.71-26,1.71-52.91a244.5,244.5,0,0,0-5.69-50.92c-3.13-11.66-10-19.91-20.48-25s-21-5.69-31.86-1.42c-11.1,4.26-18.49,14.79-22.76,31.29a217.7,217.7,0,0,0-3.7,42.38c0,15.65.57,30.16,1.14,44.38q2.13,30.72,0,43.53c-3.41,11.09-10,18.2-19.91,20.76-10,2.85-19.63,1.71-29-2.84-9.67-4.84-15.36-12.8-17.64-23.9q-16.64-111.37,9.39-173.24c17.07-41.25,51.49-61.16,103.26-60C1236.21,192.65,1258.69,200.62,1274.33,214.84Z"/><path class="cls-3" d="M1270.05,211.32c15.59,14.71,26.26,33.47,31.75,56.55s7.79,47.91,7.21,74.74-2,53.39-4.33,79.36c-.29,2.3-.29,4.61-.58,7.21q-2.6,16.88-19,21.64a44.67,44.67,0,0,1-32.32-2c-10.68-4.62-16.16-13.27-16.45-25.68q.43-12.12.87-25.1,1.72-26.41,1.73-53.68a248.57,248.57,0,0,0-5.77-51.65c-3.18-11.83-10.1-20.2-20.78-25.39s-21.35-5.77-32.32-1.45c-11.25,4.33-18.75,15-23.08,31.75a220.58,220.58,0,0,0-3.75,43c0,15.87.57,30.59,1.15,45q2.16,31.15,0,44.15c-3.46,11.25-10.1,18.46-20.2,21.06-10.1,2.89-19.91,1.73-29.43-2.88-9.81-4.91-15.58-13-17.89-24.24q-16.89-113,9.52-175.74,26-62.76,104.75-60.88C1231.39,188.81,1254.18,196.89,1270.05,211.32Z"/><path class="cls-4" d="M1263.5,205.91c15.92,15,26.83,34.21,32.43,57.79s8,48.94,7.37,76.36-2.07,54.55-4.42,81.08c-.3,2.36-.3,4.72-.59,7.37q-2.65,17.25-19.46,22.11a45.61,45.61,0,0,1-33-2.06c-10.91-4.72-16.51-13.56-16.81-26.24q.45-12.39.89-25.65,1.77-27,1.77-54.84a254.28,254.28,0,0,0-5.9-52.77c-3.24-12.09-10.32-20.64-21.23-25.95s-21.82-5.89-33-1.47c-11.5,4.42-19.16,15.33-23.59,32.43a226,226,0,0,0-3.83,43.93c0,16.21.59,31.25,1.18,46q2.2,31.85,0,45.11c-3.54,11.5-10.32,18.87-20.64,21.52-10.32,2.95-20.34,1.77-30.07-2.95-10-5-15.92-13.26-18.28-24.76Q1059,307.48,1086,243.36c17.69-42.75,53.36-63.39,107-62.21C1224,182.92,1247.28,191.17,1263.5,205.91Z"/><path class="cls-1" d="M1730,375.57q-12.52,43.43-47.61,63.48t-78.51,20.88a128.08,128.08,0,0,1-63.2-15.59,125.43,125.43,0,0,1-46.78-45.11,34.19,34.19,0,0,1-3.9-11.69,40.72,40.72,0,0,1,4.18-21.44q7.51-15.45,21.72-20.88c9.46-3.9,18.65-.84,27,8.63a2.77,2.77,0,0,1,1.12,1.39c5,6.13,10.3,12.53,16.42,18.93a66.54,66.54,0,0,0,20,14.76,48.93,48.93,0,0,0,20.88,3.9,85.61,85.61,0,0,0,31.74-6.13,38.09,38.09,0,0,0,22.56-21.44,31.64,31.64,0,0,0,1.39-22.55c-3.34-8.07-9.47-15-18.1-20.88a202.2,202.2,0,0,0-24.5-13.64c-5.85-2.79-12-5.85-17.82-8.63a413.62,413.62,0,0,1-51.51-27c-21.72-14.2-37.59-30.91-47.05-50.4-9.75-19.21-13.37-42-10.58-68.49,3.34-35.08,18.65-63.48,46.22-85.2a136.51,136.51,0,0,1,44.82-21.71,189,189,0,0,1,49.56-7.52,238.51,238.51,0,0,1,67.38,7.8c11.69,3.62,19.77,10,23.39,19.49,3.9,9.46,4.73,19.21,2.78,29.79a56.78,56.78,0,0,1-11.41,25.89c-5.57,6.68-12,8.91-18.94,7.24a182.82,182.82,0,0,0-43.15-8.91,108.51,108.51,0,0,0-43.44,4.73,65,65,0,0,0-23.38,14.48A47.52,47.52,0,0,0,1568,163.69a49.49,49.49,0,0,0-.55,17,46.53,46.53,0,0,0,6.68,19.21,89.05,89.05,0,0,0,33.13,30.35,356.18,356.18,0,0,0,37,18.93c3.34,1.67,6.68,3.34,10.3,5a259.3,259.3,0,0,1,35.36,19.21,109.66,109.66,0,0,1,29.79,26.73,76.56,76.56,0,0,1,13.92,36.48A109.72,109.72,0,0,1,1730,375.57Z"/><path class="cls-2" d="M1733.47,373.6q-12.81,44.38-48.65,64.86T1604.6,459.8A130.94,130.94,0,0,1,1540,443.87a128.15,128.15,0,0,1-47.79-46.09,34.7,34.7,0,0,1-4-11.95,41.54,41.54,0,0,1,4.26-21.9q7.68-15.8,22.19-21.34c9.67-4,19.06-.85,27.59,8.82a2.85,2.85,0,0,1,1.14,1.43c5.12,6.25,10.53,12.8,16.79,19.34a68,68,0,0,0,20.48,15.08,50.1,50.1,0,0,0,21.33,4,87.49,87.49,0,0,0,32.43-6.26,39,39,0,0,0,23-21.9,32.42,32.42,0,0,0,1.42-23.05c-3.42-8.25-9.67-15.36-18.49-21.33a206.42,206.42,0,0,0-25-13.94c-6-2.85-12.23-6-18.2-8.82a421.4,421.4,0,0,1-52.63-27.59c-22.19-14.51-38.4-31.58-48.08-51.49-10-19.63-13.65-43-10.81-70,3.42-35.85,19.06-64.86,47.23-87a139.59,139.59,0,0,1,45.8-22.19A193.3,193.3,0,0,1,1629.35,30a243.59,243.59,0,0,1,68.84,8c12,3.69,20.2,10.24,23.9,19.91,4,9.67,4.84,19.63,2.84,30.44s-6,19.34-11.66,26.45c-5.69,6.83-12.23,9.11-19.34,7.4a186.42,186.42,0,0,0-44.1-9.1,110.55,110.55,0,0,0-44.37,4.83c-9.11,3.42-17.36,8.25-23.9,14.79a48.59,48.59,0,0,0-13.65,24.47,50.39,50.39,0,0,0-.57,17.35,47.53,47.53,0,0,0,6.83,19.63,91,91,0,0,0,33.85,31,364.7,364.7,0,0,0,37.83,19.34c3.42,1.71,6.83,3.42,10.53,5.12a265.14,265.14,0,0,1,36.13,19.63,112.33,112.33,0,0,1,30.43,27.31,78.35,78.35,0,0,1,14.23,37.27A112.12,112.12,0,0,1,1733.47,373.6Z"/><path class="cls-3" d="M1735.79,372.27q-13,45-49.34,65.8t-81.38,21.64a132.83,132.83,0,0,1-65.5-16.16,130,130,0,0,1-48.48-46.75,35.4,35.4,0,0,1-4-12.12,42.14,42.14,0,0,1,4.33-22.22q7.78-16,22.51-21.64c9.81-4,19.33-.87,28,8.95a2.81,2.81,0,0,1,1.15,1.44c5.2,6.35,10.68,13,17,19.62a68.93,68.93,0,0,0,20.77,15.29,50.62,50.62,0,0,0,21.65,4,88.93,88.93,0,0,0,32.89-6.34,39.5,39.5,0,0,0,23.38-22.22,32.83,32.83,0,0,0,1.44-23.38c-3.46-8.37-9.81-15.58-18.76-21.64A208.94,208.94,0,0,0,1616,302.44c-6.06-2.88-12.41-6.06-18.47-8.94a428.05,428.05,0,0,1-53.38-28c-22.51-14.72-39-32-48.77-52.23-10.1-19.91-13.85-43.58-11-71,3.46-36.36,19.33-65.79,47.9-88.3a141.66,141.66,0,0,1,46.45-22.51,196.42,196.42,0,0,1,51.37-7.79A247.29,247.29,0,0,1,1700,31.77c12.12,3.75,20.49,10.39,24.24,20.2,4,9.81,4.9,19.91,2.88,30.88s-6.05,19.62-11.83,26.83c-5.77,6.93-12.4,9.24-19.62,7.51A189,189,0,0,0,1651,108a112.28,112.28,0,0,0-45,4.91,67.49,67.49,0,0,0-24.24,15,49.3,49.3,0,0,0-13.85,24.82,51.33,51.33,0,0,0-.58,17.6,48.4,48.4,0,0,0,6.93,19.91,92.18,92.18,0,0,0,34.34,31.45,367.33,367.33,0,0,0,38.37,19.63c3.47,1.73,6.93,3.46,10.68,5.19a267.78,267.78,0,0,1,36.65,19.91,113.87,113.87,0,0,1,30.88,27.7,79.45,79.45,0,0,1,14.42,37.8A113.73,113.73,0,0,1,1735.79,372.27Z"/><path class="cls-4" d="M1739.35,370.24q-13.26,46-50.41,67.22t-83.15,22.11a135.62,135.62,0,0,1-66.92-16.51,132.72,132.72,0,0,1-49.53-47.76,36,36,0,0,1-4.13-12.38,43.05,43.05,0,0,1,4.42-22.71q8-16.35,23-22.11c10-4.13,19.75-.88,28.6,9.14a3,3,0,0,1,1.18,1.48c5.3,6.48,10.9,13.26,17.39,20A70.42,70.42,0,0,0,1581,384.39a51.8,51.8,0,0,0,22.11,4.13,90.78,90.78,0,0,0,33.61-6.49,40.34,40.34,0,0,0,23.88-22.7,33.56,33.56,0,0,0,1.48-23.88c-3.54-8.55-10-15.92-19.17-22.11A213.53,213.53,0,0,0,1617,298.89c-6.19-2.95-12.68-6.19-18.87-9.14a437.36,437.36,0,0,1-54.55-28.6c-23-15-39.8-32.72-49.82-53.36-10.32-20.35-14.15-44.52-11.21-72.53,3.54-37.15,19.76-67.22,49-90.22A144.72,144.72,0,0,1,1579,22a200.69,200.69,0,0,1,52.48-8,252.79,252.79,0,0,1,71.35,8.26c12.39,3.83,20.94,10.61,24.77,20.64,4.13,10,5,20.34,3,31.54s-6.19,20-12.09,27.42c-5.9,7.08-12.68,9.44-20.05,7.67a194,194,0,0,0-45.7-9.44,114.75,114.75,0,0,0-46,5c-9.44,3.53-18,8.55-24.77,15.33a50.42,50.42,0,0,0-14.15,25.35,52.6,52.6,0,0,0-.59,18,49.31,49.31,0,0,0,7.08,20.34,94.38,94.38,0,0,0,35.08,32.14,378.49,378.49,0,0,0,39.21,20c3.54,1.76,7.08,3.53,10.91,5.3A274.09,274.09,0,0,1,1696.9,262a116.23,116.23,0,0,1,31.54,28.3A81.09,81.09,0,0,1,1743.18,329,116.39,116.39,0,0,1,1739.35,370.24Z"/><path class="cls-1" d="M1834.72,166.59c.84,8.08,4.73,13.65,11.42,16.71a50.9,50.9,0,0,0,22.55,4.18c14.76-.84,28.12,1.39,39.81,6.4q18,7.51,16.71,28.4c-1.67,10.86-7.24,18.1-16.71,21.44a118.58,118.58,0,0,1-31.46,6.4c-11.41,1.12-21.44,3.06-29.79,6.13-8.35,3.34-12.53,10-12.53,20.32,0,6.68.28,13.09,0,19.77a248.88,248.88,0,0,0,1.67,35.92c1.39,11.13,5.29,21.16,12,29.51,6.41,8.35,17.54,14.76,32.58,18.65,11.42,2.79,20,6.69,25.34,11.7,5.56,5.29,8.35,13.64,8.91,25.33-.28,17.27-7,28.12-19.49,32.3-12.81,4.46-27.29,4.46-43.72.56-16.14-3.9-29.51-9.75-40.09-17.26-10.86-8.36-19.77-17.82-26.17-28.68A141.79,141.79,0,0,1,1771,369a340.69,340.69,0,0,1-6.12-50.4c-3.07-60.69-3.34-122.22-1.39-184.31.27-12.53.55-24.78.83-37.31V92.26a191.46,191.46,0,0,1,2.23-31.19c1.67-10,6.12-17.82,13.36-23.66,7.24-5.57,19.21-7,35.64-4.46,10.86,2.51,17.54,8.35,19.49,17.82a94.23,94.23,0,0,1,1.39,29.51c0,3.62-.28,6.69-.28,9.75,0,10.86-.27,21.16-1.11,30.63A359.86,359.86,0,0,0,1834.72,166.59Z"/><path class="cls-2" d="M1840.43,160.22c.85,8.25,4.84,13.94,11.66,17.07a52.13,52.13,0,0,0,23.05,4.27c15.07-.86,28.73,1.42,40.67,6.54q18.36,7.68,17.07,29c-1.7,11.09-7.39,18.49-17.07,21.9a121.38,121.38,0,0,1-32.14,6.54c-11.66,1.14-21.9,3.13-30.44,6.26-8.53,3.42-12.8,10.24-12.8,20.77,0,6.83.28,13.37,0,20.2a253.6,253.6,0,0,0,1.71,36.69c1.42,11.38,5.4,21.62,12.23,30.16,6.54,8.53,17.92,15.07,33.28,19.06,11.67,2.84,20.48,6.82,25.89,11.94,5.69,5.41,8.53,13.94,9.1,25.89-.28,17.64-7.11,28.73-19.91,33-13.09,4.55-27.88,4.55-44.66.57-16.5-4-30.16-10-41-17.64-11.09-8.53-20.19-18.21-26.74-29.3A144.67,144.67,0,0,1,1775.29,367a347.25,347.25,0,0,1-6.26-51.49c-3.13-62-3.42-124.88-1.42-188.32.28-12.8.56-25.31.85-38.12V84.27a196.17,196.17,0,0,1,2.27-31.86c1.71-10.24,6.26-18.21,13.66-24.18,7.4-5.69,19.63-7.11,36.41-4.55,11.1,2.56,17.92,8.53,19.91,18.2A96.51,96.51,0,0,1,1842.14,72c0,3.69-.29,6.82-.29,9.95,0,11.1-.28,21.62-1.14,31.29A368.33,368.33,0,0,0,1840.43,160.22Z"/><path class="cls-3" d="M1844.29,155.91c.87,8.37,4.91,14.14,11.83,17.32a52.84,52.84,0,0,0,23.38,4.32c15.29-.86,29.14,1.45,41.26,6.64q18.62,7.8,17.31,29.43c-1.73,11.26-7.5,18.76-17.31,22.22a122.68,122.68,0,0,1-32.61,6.64c-11.83,1.15-22.22,3.17-30.87,6.35-8.66,3.46-13,10.39-13,21.06,0,6.93.29,13.57,0,20.49a258,258,0,0,0,1.73,37.23c1.44,11.54,5.48,21.93,12.41,30.58,6.64,8.66,18.18,15.3,33.76,19.34,11.83,2.88,20.78,6.92,26.26,12.12,5.77,5.48,8.66,14.14,9.23,26.26-.28,17.89-7.21,29.14-20.19,33.47-13.28,4.62-28.28,4.62-45.31.58-16.73-4-30.59-10.1-41.55-17.89-11.26-8.66-20.49-18.47-27.13-29.73a147,147,0,0,1-15.29-36.64,354.74,354.74,0,0,1-6.35-52.23c-3.17-62.91-3.46-126.68-1.44-191,.29-13,.58-25.68.86-38.67v-4.9a198.38,198.38,0,0,1,2.31-32.32c1.73-10.39,6.35-18.47,13.85-24.53,7.51-5.77,19.91-7.21,36.94-4.62,11.25,2.6,18.18,8.66,20.2,18.47A97.74,97.74,0,0,1,1846,66.46c0,3.75-.29,6.92-.29,10.1,0,11.25-.28,21.93-1.15,31.74A373.22,373.22,0,0,0,1844.29,155.91Z"/><path class="cls-4" d="M1850.21,149.31c.88,8.55,5,14.44,12.09,17.69a54,54,0,0,0,23.88,4.42c15.62-.88,29.77,1.47,42.16,6.78q19,8,17.69,30.07c-1.77,11.5-7.67,19.17-17.69,22.71a126.51,126.51,0,0,1-33.32,6.78c-12.09,1.18-22.7,3.24-31.55,6.48-8.84,3.54-13.26,10.62-13.26,21.53,0,7.07.29,13.85,0,20.93a261.81,261.81,0,0,0,1.77,38c1.47,11.79,5.6,22.41,12.67,31.25,6.79,8.85,18.58,15.63,34.5,19.76,12.09,2.94,21.23,7.07,26.83,12.38,5.9,5.6,8.84,14.45,9.43,26.83-.29,18.28-7.37,29.78-20.64,34.2-13.56,4.72-28.89,4.72-46.28.59-17.1-4.13-31.26-10.32-42.46-18.28-11.5-8.85-20.93-18.87-27.71-30.37a150.11,150.11,0,0,1-15.63-37.44,360.43,360.43,0,0,1-6.48-53.37c-3.25-64.27-3.54-129.43-1.48-195.17.3-13.27.59-26.24.89-39.51v-5a203.46,203.46,0,0,1,2.35-33c1.77-10.62,6.49-18.87,14.16-25.06,7.66-5.9,20.34-7.37,37.73-4.72,11.5,2.65,18.58,8.84,20.64,18.87A99.8,99.8,0,0,1,1852,57.91c0,3.83-.3,7.08-.3,10.32,0,11.5-.29,22.41-1.18,32.43A378.47,378.47,0,0,0,1850.21,149.31Z"/><path class="cls-1" d="M2087.25,453.09c-51,1.12-86-18.93-104.69-60.14-18.93-41.2-23.66-98.28-13.64-171.23,2.23-10.86,8.91-18.37,19.77-22.55a49.55,49.55,0,0,1,32.85-1.95c11.14,3.34,17.82,10.3,20.33,21.44q1.25,11.7-.84,38.42-1.24,23.39-1.67,49.28a220.82,220.82,0,0,0,3.9,46.78c4.46,16.43,12,26.45,23.11,30.62a39.7,39.7,0,0,0,32.3-1.94,37.06,37.06,0,0,0,20.6-24.51,234,234,0,0,0,4.18-49.55c-.28-17.82-1.4-35.64-2.79-52.91-.83-10.58-1.39-20.6-1.95-30.06.56-12.26,6.13-20.61,17.54-25.06a51.69,51.69,0,0,1,34.25-2.23c11.69,3.06,18.38,10,20.32,21.16,2.51,25.34,3.9,51.51,4.46,78.24s-2,51.51-7.52,74.61c-5.85,23.11-16.43,42.32-32,57.08C2139.87,443.35,2117,451.42,2087.25,453.09Z"/><path class="cls-2" d="M2098.45,452.94c-52.06,1.14-87.91-19.34-107-61.44-19.34-42.1-24.18-100.42-13.93-174.95,2.27-11.1,9.1-18.78,20.19-23a50.55,50.55,0,0,1,33.57-2c11.38,3.42,18.21,10.53,20.77,21.91q1.27,11.94-.86,39.26-1.28,23.9-1.7,50.35a224.82,224.82,0,0,0,4,47.79c4.55,16.78,12.23,27,23.61,31.29a40.6,40.6,0,0,0,33-2,37.86,37.86,0,0,0,21-25,238.53,238.53,0,0,0,4.27-50.63c-.29-18.21-1.43-36.41-2.85-54-.85-10.81-1.42-21.05-2-30.72.57-12.52,6.26-21.05,17.92-25.61a52.85,52.85,0,0,1,35-2.27c11.95,3.13,18.78,10.24,20.77,21.62,2.56,25.89,4,52.63,4.55,79.93s-2,52.63-7.68,76.24c-6,23.61-16.78,43.24-32.71,58.32C2152.21,443,2128.88,451.24,2098.45,452.94Z"/><path class="cls-3" d="M2106,452.84c-52.81,1.16-89.17-19.62-108.5-62.33-19.63-42.7-24.53-101.86-14.14-177.46,2.31-11.26,9.23-19.05,20.49-23.38a51.38,51.38,0,0,1,34.05-2c11.54,3.47,18.46,10.68,21.06,22.22q1.3,12.12-.87,39.82-1.29,24.24-1.73,51.08a229,229,0,0,0,4,48.48c4.62,17,12.41,27.41,23.95,31.74a41.17,41.17,0,0,0,33.48-2,38.39,38.39,0,0,0,21.35-25.39,242.05,242.05,0,0,0,4.33-51.37c-.29-18.47-1.44-36.93-2.89-54.82-.86-11-1.44-21.36-2-31.17.58-12.7,6.35-21.35,18.18-26a53.66,53.66,0,0,1,35.5-2.31c12.12,3.18,19,10.39,21.06,21.93,2.6,26.26,4,53.39,4.62,81.09s-2,53.38-7.79,77.33c-6.06,23.95-17,43.86-33.19,59.16C2160.55,442.74,2136.89,451.11,2106,452.84Z"/><path class="cls-4" d="M2117.62,452.69c-54,1.18-91.1-20.05-110.86-63.69-20-43.63-25.06-104.07-14.44-181.32,2.35-11.49,9.43-19.45,20.93-23.88a52.5,52.5,0,0,1,34.79-2.06c11.79,3.54,18.87,10.91,21.52,22.7q1.32,12.39-.88,40.69-1.33,24.76-1.77,52.18a233.87,233.87,0,0,0,4.12,49.53c4.72,17.4,12.68,28,24.48,32.43a42,42,0,0,0,34.2-2.06,39.23,39.23,0,0,0,21.81-25.94,247,247,0,0,0,4.43-52.48c-.3-18.87-1.48-37.74-2.95-56-.89-11.21-1.48-21.82-2.07-31.84.59-13,6.49-21.82,18.58-26.54,11.79-5,23.88-5.6,36.26-2.36s19.46,10.62,21.52,22.41c2.66,26.83,4.13,54.54,4.72,82.85s-2.06,54.54-8,79c-6.19,24.47-17.39,44.82-33.9,60.44C2173.34,442.37,2149.16,450.92,2117.62,452.69Z"/><path class="cls-1" d="M2452.54,384.18c-.55,31.74-8.91,52.91-24.5,63.76-15.87,10.86-37.86,16.43-65.71,16.15-33.69.28-60.69-8.35-80.46-25.89a128.07,128.07,0,0,1-40.09-64.32,183.15,183.15,0,0,1-5.85-38.14A159.36,159.36,0,0,1,2239,297.6c5-25.34,15.87-45.67,32-61.26,13.64-12,26.45-20,37.87-23.66,11.69-3.62,22-5.85,31.18-6.41,10.58-.55,18.93-3.06,25.34-7.51S2376,184,2377.65,167c1.67-16.7.83-44-3.07-81.57-.55-12.53,2.51-22.28,9.47-28.68a40.36,40.36,0,0,1,25.89-10.86,42.16,42.16,0,0,1,27,7.8q11.7,8.76,13.36,26.73c1.68,42.32,2.79,91.6,2.79,148.12C2453.38,285.07,2453.1,337.13,2452.54,384.18ZM2338.11,272.82c-12.53,2.78-22,10.85-28.12,24.22s-8.91,28.4-8.07,44.82c.83,16.71,5.56,31.47,13.92,44s20.88,19.48,37.58,20.6c10.86,0,18.66-2.79,23.11-8.63,4.74-5.57,7.24-13.09,8.08-22a222.35,222.35,0,0,0,.83-27.28c-.28-5.29-.28-10.31-.28-15a115.83,115.83,0,0,0-1.95-28.95c-1.94-10.31-6.12-18.66-13.08-25.34C2363.17,272.82,2352.59,270.59,2338.11,272.82Z"/><path class="cls-2" d="M2471.67,382.3c-.57,32.43-9.1,54.05-25,65.14-16.22,11.1-38.69,16.79-67.14,16.5-34.42.29-62-8.53-82.21-26.45a130.85,130.85,0,0,1-41-65.72,187.23,187.23,0,0,1-6-39,162.72,162.72,0,0,1,3.13-39c5.12-25.89,16.22-46.65,32.72-62.58,13.94-12.24,27-20.49,38.68-24.18,11.95-3.7,22.48-6,31.87-6.55,10.8-.57,19.34-3.13,25.88-7.68s10.81-15.08,12.52-32.43c1.71-17.07.85-44.94-3.13-83.35-.57-12.8,2.56-22.76,9.67-29.3a41.22,41.22,0,0,1,26.46-11.09,43.09,43.09,0,0,1,27.59,8q12,9,13.66,27.31c1.7,43.24,2.84,93.59,2.84,151.34C2472.52,281,2472.24,334.22,2471.67,382.3ZM2354.75,268.51c-12.8,2.85-22.47,11.1-28.73,24.75s-9.1,29-8.25,45.8c.86,17.07,5.69,32.15,14.23,44.95s21.33,19.91,38.4,21.05c11.09,0,19.06-2.85,23.61-8.82,4.84-5.69,7.4-13.37,8.25-22.47a226.17,226.17,0,0,0,.85-27.88c-.28-5.41-.28-10.53-.28-15.36a118.66,118.66,0,0,0-2-29.59c-2-10.52-6.26-19.06-13.37-25.89C2380.36,268.51,2369.55,266.24,2354.75,268.51Z"/><path class="cls-3" d="M2484.61,381c-.58,32.9-9.24,54.83-25.4,66.09-16.44,11.25-39.24,17-68.1,16.73-34.91.29-62.9-8.66-83.39-26.83a132.76,132.76,0,0,1-41.55-66.66,189.47,189.47,0,0,1-6.06-39.53,164.86,164.86,0,0,1,3.17-39.54c5.2-26.26,16.45-47.32,33.19-63.48,14.14-12.41,27.41-20.78,39.24-24.53,12.12-3.75,22.8-6.06,32.32-6.64,11-.57,19.62-3.17,26.26-7.79s11-15.29,12.7-32.89c1.73-17.32.86-45.6-3.18-84.55-.58-13,2.6-23.09,9.81-29.72a41.8,41.8,0,0,1,26.84-11.26,43.78,43.78,0,0,1,28,8.08q12.12,9.09,13.85,27.7c1.73,43.87,2.89,94.94,2.89,153.52C2485.47,278.3,2485.19,332.26,2484.61,381ZM2366,265.6c-13,2.89-22.8,11.25-29.15,25.11s-9.23,29.43-8.36,46.45c.86,17.32,5.77,32.61,14.42,45.6s21.65,20.2,39,21.35c11.25,0,19.33-2.89,23.95-8.95,4.91-5.77,7.5-13.56,8.37-22.79a230.64,230.64,0,0,0,.86-28.28c-.28-5.48-.28-10.68-.28-15.58a120.6,120.6,0,0,0-2-30c-2-10.68-6.35-19.34-13.57-26.26C2392,265.6,2381,263.29,2366,265.6Z"/><path class="cls-4" d="M2504.43,379.07c-.59,33.61-9.43,56-25.94,67.52-16.81,11.5-40.1,17.39-69.58,17.1-35.68.29-64.27-8.85-85.21-27.42a135.66,135.66,0,0,1-42.45-68.11,194.29,194.29,0,0,1-6.19-40.39,168.86,168.86,0,0,1,3.24-40.39c5.31-26.83,16.8-48.35,33.91-64.86,14.44-12.68,28-21.23,40.09-25.06,12.38-3.84,23.29-6.2,33-6.79,11.21-.58,20-3.24,26.83-8s11.21-15.62,13-33.61c1.77-17.69.89-46.58-3.24-86.38-.59-13.27,2.66-23.59,10-30.37a42.72,42.72,0,0,1,27.41-11.5,44.66,44.66,0,0,1,28.6,8.26q12.39,9.28,14.16,28.3c1.76,44.82,2.94,97,2.94,156.85C2505.32,274.11,2505,329.24,2504.43,379.07ZM2383.26,261.14c-13.27,2.95-23.29,11.5-29.78,25.65s-9.43,30.07-8.55,47.47c.89,17.69,5.9,33.31,14.74,46.58s22.11,20.64,39.8,21.82c11.5,0,19.76-3,24.48-9.14,5-5.9,7.66-13.86,8.55-23.29a236.71,236.71,0,0,0,.88-28.9c-.29-5.6-.29-10.91-.29-15.92a123.09,123.09,0,0,0-2.07-30.66c-2.06-10.91-6.48-19.75-13.86-26.83C2409.79,261.14,2398.59,258.78,2383.26,261.14Z"/><path class="cls-4" d="M25.9,494.47c127.74-49.9,280.84-60.94,416.45-44.06,12.65,1.53,33.4,4.75,46.23,6.76,58.69,8.85,118.12,9.54,177.24,4.76C789,451,910.76,424.49,1035.1,423a1286.55,1286.55,0,0,1,237.45,17.24c13.37,2.15,31.24,5,44.37,6.72a1118.06,1118.06,0,0,0,221.25,8.21c76.14-4.5,151.12-16.4,227.62-23.79,110.56-11.44,223.69-8,332.91,12.93,43.36,8.44,87.86,14.34,132.08,16.13,14.34.62,30.09.94,44.45.95,138.26-.19,275-30.69,413.57-27.27a911.32,911.32,0,0,1,275.51,47.51l-1.23,4.86a1055.81,1055.81,0,0,0-113-21.87c-22.63-3-45.87-5.37-68.69-6.75C2627,446.36,2475.8,485.3,2322.69,497.74c-69.34,5.37-139.37,3.77-208.2-6.67-37.75-6.27-76-12-114.09-15.08-76.41-6.76-153.31-4.38-229.53,3.91-122.32,14-245.1,34.56-368.67,25.28-30.85-1.92-61.61-5.17-92.21-9.56-13.67-1.86-32-5-45.72-7.33a1293.28,1293.28,0,0,0-320.81-15.71c-122.81,8.25-244.93,33.89-368.5,26.47-38.45-2.08-77.07-7.88-114.76-15.77-22.22-4.28-45.66-7.9-68.14-10.62C278,459.15,161,464.11,49.52,492.74c-7.38,2-14.8,4.08-22,6.46l-1.65-4.73Z"/></g></g></svg>