<svg xmlns="http://www.w3.org/2000/svg" viewBox="0 0 167.19 26.37"><defs><style>.cls-1{fill:#6d8f98;}</style></defs><g id="Layer_2" data-name="Layer 2"><g id="Layer_3" data-name="Layer 3"><polygon class="cls-1" points="13.86 0 18.15 8.68 27.73 10.07 20.79 16.83 22.43 26.37 13.86 21.86 5.29 26.37 6.93 16.83 0 10.07 9.58 8.68 13.86 0"/><polygon class="cls-1" points="48.73 0 53.01 8.68 62.59 10.07 55.66 16.83 57.3 26.37 48.73 21.86 40.16 26.37 41.8 16.83 34.87 10.07 44.45 8.68 48.73 0"/><polygon class="cls-1" points="83.6 0 87.88 8.68 97.46 10.07 90.53 16.83 92.16 26.37 83.6 21.86 75.03 26.37 76.67 16.83 69.73 10.07 79.31 8.68 83.6 0"/><polygon class="cls-1" points="118.46 0 122.75 8.68 132.32 10.07 125.39 16.83 127.03 26.37 118.46 21.86 109.89 26.37 111.53 16.83 104.6 10.07 114.18 8.68 118.46 0"/><polygon class="cls-1" points="153.33 0 157.61 8.68 167.19 10.07 160.26 16.83 161.9 26.37 153.33 21.86 144.76 26.37 146.4 16.83 139.47 10.07 149.04 8.68 153.33 0"/></g></g></svg>