<svg xmlns="http://www.w3.org/2000/svg" viewBox="0 0 145.12 152.27"><defs><style>.cls-1{opacity:0.32;}.cls-2{fill:#6d8f98;}</style></defs><g id="Layer_2" data-name="Layer 2"><g id="Layer_3" data-name="Layer 3"><g class="cls-1"><circle class="cls-2" cx="7.91" cy="7.91" r="7.91"/><circle class="cls-2" cx="33.77" cy="7.91" r="7.91"/><circle class="cls-2" cx="59.63" cy="7.91" r="7.91"/><circle class="cls-2" cx="85.49" cy="7.91" r="7.91"/><circle class="cls-2" cx="111.35" cy="7.91" r="7.91"/><circle class="cls-2" cx="137.22" cy="7.91" r="7.91"/><circle class="cls-2" cx="7.91" cy="35.2" r="7.91"/><circle class="cls-2" cx="33.77" cy="35.2" r="7.91"/><circle class="cls-2" cx="59.63" cy="35.2" r="7.91"/><circle class="cls-2" cx="85.49" cy="35.2" r="7.91"/><circle class="cls-2" cx="111.35" cy="35.2" r="7.91"/><circle class="cls-2" cx="137.22" cy="35.2" r="7.91"/><circle class="cls-2" cx="7.91" cy="62.49" r="7.91"/><circle class="cls-2" cx="33.77" cy="62.49" r="7.91"/><circle class="cls-2" cx="59.63" cy="62.49" r="7.91"/><circle class="cls-2" cx="85.49" cy="62.49" r="7.91"/><circle class="cls-2" cx="111.35" cy="62.49" r="7.91"/><circle class="cls-2" cx="137.22" cy="62.49" r="7.91"/><circle class="cls-2" cx="7.91" cy="89.78" r="7.91"/><circle class="cls-2" cx="33.77" cy="89.78" r="7.91"/><circle class="cls-2" cx="59.63" cy="89.78" r="7.91"/><circle class="cls-2" cx="85.49" cy="89.78" r="7.91"/><circle class="cls-2" cx="111.35" cy="89.78" r="7.91"/><circle class="cls-2" cx="137.22" cy="89.78" r="7.91"/><circle class="cls-2" cx="7.91" cy="117.07" r="7.91"/><circle class="cls-2" cx="33.77" cy="117.07" r="7.91"/><circle class="cls-2" cx="59.63" cy="117.07" r="7.91"/><circle class="cls-2" cx="85.49" cy="117.07" r="7.91"/><circle class="cls-2" cx="111.35" cy="117.07" r="7.91"/><circle class="cls-2" cx="137.22" cy="117.07" r="7.91"/><circle class="cls-2" cx="7.91" cy="144.37" r="7.91"/><circle class="cls-2" cx="33.77" cy="144.37" r="7.91"/><circle class="cls-2" cx="59.63" cy="144.37" r="7.91"/><circle class="cls-2" cx="85.49" cy="144.37" r="7.91"/><circle class="cls-2" cx="111.35" cy="144.37" r="7.91"/><circle class="cls-2" cx="137.22" cy="144.37" r="7.91"/></g></g></g></svg>